# xmcd
#
# Track frame offsets: 
#        150
#        11412
#        22966
#        34142
#        44415
#        55448
#        64020
#        74986
#        85764
#        95810
#        107355
#        119766
#        133979
#        146661
#        156543
#        171523
#        182393
#        192390
#        202263
#        214469
#        224889
#        234451
#        243393
#        255062
#
# Disc length: 3531 seconds
#
# Revision: 2
# Processed by: cddbd v1.5.2PL0 Copyright (c) Steve Scherf et al.
# Submitted via: ExactAudioCopyFreeDBPlugin 1.0
#
DISCID=7d0dc918
DTITLE=Patsy Cline - Real Gone Music - Three Classic Albums plus Bonus
DTITLE=Singles
DYEAR=2013
DGENRE=Country
TTITLE0=That wonderful someone  (1957)
TTITLE1=(Write me) In care of the blues  (1957)
TTITLE2=Hungry for love  (1957)
TTITLE3=Too many secrets  (1957)
TTITLE4=Don't ever leave me again  (1957)
TTITLE5=Ain't no wheels on this ship  (1957)
TTITLE6=I can't forget you  (1957)
TTITLE7=I don't wanta  (1957)
TTITLE8=Three cigarettes (In an ashtray)  (1957)
TTITLE9=Walkin' after midnight  (1957)
TTITLE10=Fingerprints  (1957)
TTITLE11=Then you'll know  (1957)
TTITLE12=I fall to pieces  (1961)
TTITLE13=Foolin' around  (1961)
TTITLE14=The wayward wind  (1961)
TTITLE15=South of the border (Down Mexico way)  (1961)
TTITLE16=I love you so much it hurts  (1961)
TTITLE17=Seven lonely days  (1961)
TTITLE18=Crazy  (1961)
TTITLE19=San Antonio rose  (1961)
TTITLE20=True love  (1961)
TTITLE21=Walkin' after midnight  (1961)
TTITLE22=A poor man's roses (Or a rich man's gold)  (1961)
TTITLE23=Have you ever been lonely (Have you ever been blue)  (1961)
EXTD=
EXTT0=
EXTT1=
EXTT2=
EXTT3=
EXTT4=
EXTT5=
EXTT6=
EXTT7=
EXTT8=
EXTT9=
EXTT10=
EXTT11=
EXTT12=
EXTT13=
EXTT14=
EXTT15=
EXTT16=
EXTT17=
EXTT18=
EXTT19=
EXTT20=
EXTT21=
EXTT22=
EXTT23=
PLAYORDER=
